<mxfile host="app.diagrams.net" agent="Mozilla/5.0 (Windows NT 10.0; Win64; x64) AppleWebKit/537.36 (KHTML, like Gecko) Chrome/131.0.0.0 Safari/537.36" version="24.8.8">
  <diagram name="Page-1" id="XebhMh_R4pWhsAYjF9Z1">
    <mxGraphModel dx="1050" dy="522" grid="1" gridSize="10" guides="1" tooltips="1" connect="1" arrows="1" fold="1" page="1" pageScale="1" pageWidth="600" pageHeight="500" math="0" shadow="0">
      <root>
        <mxCell id="0" />
        <mxCell id="1" parent="0" />
        <mxCell id="gC1tsB2jExVhswDUNENQ-3" value="" style="ellipse;html=1;shape=startState;fillColor=#000000;strokeColor=#000000;" vertex="1" parent="1">
          <mxGeometry x="150" y="35" width="30" height="30" as="geometry" />
        </mxCell>
        <mxCell id="gC1tsB2jExVhswDUNENQ-4" value="" style="edgeStyle=orthogonalEdgeStyle;html=1;verticalAlign=bottom;endArrow=open;endSize=8;strokeColor=#000000;rounded=0;entryX=0.5;entryY=0;entryDx=0;entryDy=0;" edge="1" parent="1" source="gC1tsB2jExVhswDUNENQ-3" target="gC1tsB2jExVhswDUNENQ-6">
          <mxGeometry relative="1" as="geometry">
            <mxPoint x="244" y="135" as="targetPoint" />
            <Array as="points">
              <mxPoint x="165" y="140" />
              <mxPoint x="165" y="140" />
            </Array>
          </mxGeometry>
        </mxCell>
        <mxCell id="gC1tsB2jExVhswDUNENQ-5" value="Initiate Payment" style="edgeLabel;html=1;align=center;verticalAlign=middle;resizable=0;points=[];" vertex="1" connectable="0" parent="gC1tsB2jExVhswDUNENQ-4">
          <mxGeometry x="-0.2914" y="5" relative="1" as="geometry">
            <mxPoint x="-5" y="10" as="offset" />
          </mxGeometry>
        </mxCell>
        <mxCell id="gC1tsB2jExVhswDUNENQ-9" style="edgeStyle=orthogonalEdgeStyle;rounded=0;orthogonalLoop=1;jettySize=auto;html=1;exitX=1;exitY=0.5;exitDx=0;exitDy=0;entryX=0;entryY=0.5;entryDx=0;entryDy=0;" edge="1" parent="1" source="gC1tsB2jExVhswDUNENQ-6" target="gC1tsB2jExVhswDUNENQ-8">
          <mxGeometry relative="1" as="geometry" />
        </mxCell>
        <mxCell id="gC1tsB2jExVhswDUNENQ-6" value="Pending" style="html=1;whiteSpace=wrap;" vertex="1" parent="1">
          <mxGeometry x="110" y="170" width="110" height="50" as="geometry" />
        </mxCell>
        <mxCell id="gC1tsB2jExVhswDUNENQ-13" style="edgeStyle=orthogonalEdgeStyle;rounded=0;orthogonalLoop=1;jettySize=auto;html=1;exitX=0.5;exitY=1;exitDx=0;exitDy=0;entryX=0.5;entryY=0;entryDx=0;entryDy=0;" edge="1" parent="1" source="gC1tsB2jExVhswDUNENQ-8" target="gC1tsB2jExVhswDUNENQ-12">
          <mxGeometry relative="1" as="geometry" />
        </mxCell>
        <mxCell id="gC1tsB2jExVhswDUNENQ-17" style="edgeStyle=orthogonalEdgeStyle;rounded=0;orthogonalLoop=1;jettySize=auto;html=1;exitX=0.25;exitY=1;exitDx=0;exitDy=0;entryX=0.5;entryY=0;entryDx=0;entryDy=0;" edge="1" parent="1" source="gC1tsB2jExVhswDUNENQ-8" target="gC1tsB2jExVhswDUNENQ-11">
          <mxGeometry relative="1" as="geometry" />
        </mxCell>
        <mxCell id="gC1tsB2jExVhswDUNENQ-8" value="Processing" style="html=1;whiteSpace=wrap;" vertex="1" parent="1">
          <mxGeometry x="420" y="170" width="110" height="50" as="geometry" />
        </mxCell>
        <mxCell id="gC1tsB2jExVhswDUNENQ-10" value="Process Payment" style="text;html=1;align=center;verticalAlign=middle;resizable=0;points=[];autosize=1;strokeColor=none;fillColor=none;" vertex="1" parent="1">
          <mxGeometry x="230" y="170" width="120" height="30" as="geometry" />
        </mxCell>
        <mxCell id="gC1tsB2jExVhswDUNENQ-16" style="edgeStyle=orthogonalEdgeStyle;rounded=0;orthogonalLoop=1;jettySize=auto;html=1;exitX=0.5;exitY=1;exitDx=0;exitDy=0;entryX=0;entryY=0.5;entryDx=0;entryDy=0;" edge="1" parent="1" source="gC1tsB2jExVhswDUNENQ-11" target="gC1tsB2jExVhswDUNENQ-14">
          <mxGeometry relative="1" as="geometry" />
        </mxCell>
        <mxCell id="gC1tsB2jExVhswDUNENQ-11" value="Completed" style="html=1;whiteSpace=wrap;" vertex="1" parent="1">
          <mxGeometry x="110" y="320" width="110" height="50" as="geometry" />
        </mxCell>
        <mxCell id="gC1tsB2jExVhswDUNENQ-15" style="edgeStyle=orthogonalEdgeStyle;rounded=0;orthogonalLoop=1;jettySize=auto;html=1;exitX=0.25;exitY=1;exitDx=0;exitDy=0;entryX=1;entryY=0.5;entryDx=0;entryDy=0;" edge="1" parent="1" source="gC1tsB2jExVhswDUNENQ-12" target="gC1tsB2jExVhswDUNENQ-14">
          <mxGeometry relative="1" as="geometry" />
        </mxCell>
        <mxCell id="gC1tsB2jExVhswDUNENQ-12" value="Failed" style="html=1;whiteSpace=wrap;" vertex="1" parent="1">
          <mxGeometry x="420" y="320" width="110" height="50" as="geometry" />
        </mxCell>
        <mxCell id="gC1tsB2jExVhswDUNENQ-14" value="" style="ellipse;html=1;shape=endState;fillColor=#000000;strokeColor=#000000;" vertex="1" parent="1">
          <mxGeometry x="275" y="420" width="30" height="30" as="geometry" />
        </mxCell>
        <mxCell id="gC1tsB2jExVhswDUNENQ-18" value="Payment Failed" style="text;html=1;align=center;verticalAlign=middle;resizable=0;points=[];autosize=1;strokeColor=none;fillColor=none;" vertex="1" parent="1">
          <mxGeometry x="470" y="278" width="110" height="30" as="geometry" />
        </mxCell>
        <mxCell id="gC1tsB2jExVhswDUNENQ-19" value="Payment Sucessful" style="text;html=1;align=center;verticalAlign=middle;resizable=0;points=[];autosize=1;strokeColor=none;fillColor=none;" vertex="1" parent="1">
          <mxGeometry x="195" y="248" width="130" height="30" as="geometry" />
        </mxCell>
      </root>
    </mxGraphModel>
  </diagram>
</mxfile>
